<?xml version="1.0" encoding="UTF-8"?> <svg xmlns="http://www.w3.org/2000/svg" width="443" height="443" viewBox="0 0 443 443"><defs><style> .cls-1 { fill: #f90; fill-rule: evenodd; } </style></defs><path id="_6" data-name="6" class="cls-1" d="M228.805-15.884q-40.9,78.48-122.034,238.417l1.33,0.665h80.137L65.871,458.289v1.33Q342.857,151.708,345.852,149.711a1.178,1.178,0,0,0-1.33-1.33H250.086q7.645-13.63,101.751-162.27v-2H228.805ZM138.027,21.358Q0.692,89.527.7,212.89q0,73.157,38.572,134.005Q51.24,367.517,81.5,393.78h0.665q15.961-27.261,16.959-31.257Q35.941,290.037,35.944,218.542a176.954,176.954,0,0,1,7.648-50.875q23.606-66.5,82.8-102.084Q170.282,43.637,181.92,43.3q4.317-6.313,19.951-37.575a1.178,1.178,0,0,0-1.33-1.33h-4.323q-19.288,0-58.191,16.959h0ZM315.26,63.588a20.574,20.574,0,0,0,6.651,5.32q82.126,71.824,82.132,157.614v8.313q0,64.514-46.553,117.379-54.539,54.539-128.02,54.533H218.165q-31.26,0-72.157-12.968-1.334,0-24.274,24.274v0.665q50.876,25.275,103.746,25.272,111.726,0,182.221-109.4,35.241-52.2,35.247-116.05v-6.983q0-107.736-108.069-173.242h-2q-1.334,2.33-17.624,25.271h0Z"></path></svg> 