<?xml version="1.0" encoding="UTF-8" standalone="no"?>
<svg
   xmlns:dc="http://purl.org/dc/elements/1.1/"
   xmlns:cc="http://creativecommons.org/ns#"
   xmlns:rdf="http://www.w3.org/1999/02/22-rdf-syntax-ns#"
   xmlns:svg="http://www.w3.org/2000/svg"
   xmlns="http://www.w3.org/2000/svg"
   viewBox="0 0 682.66669 682.66669"
   height="682.66669"
   width="682.66669"
   xml:space="preserve"
   id="svg2"
   version="1.1"><metadata
     id="metadata8"><rdf:RDF><cc:Work
         rdf:about=""><dc:format>image/svg+xml</dc:format><dc:type
           rdf:resource="http://purl.org/dc/dcmitype/StillImage" /></cc:Work></rdf:RDF></metadata><defs
     id="defs6"><clipPath
       id="clipPath18"
       clipPathUnits="userSpaceOnUse"><path
         id="path16"
         d="M 0,512 H 512 V 0 H 0 Z" /></clipPath><clipPath
       id="clipPath48"
       clipPathUnits="userSpaceOnUse"><path
         id="path46"
         d="M 281.037,266.325 H 459.051 V 219.378 H 281.037 Z" /></clipPath><clipPath
       id="clipPath52"
       clipPathUnits="userSpaceOnUse"><path
         id="path50"
         d="m 281.038,219.379 h 178.014 v 46.947 H 281.038 Z" /></clipPath></defs><g
     transform="matrix(1.3333333,0,0,-1.3333333,0,682.66667)"
     id="g10"><g
       id="g12"><g
         clip-path="url(#clipPath18)"
         id="g14"><g
           transform="translate(88.7629,220.7731)"
           id="g20"><path
             id="path22"
             style="fill:#5d82c1;fill-opacity:1;fill-rule:nonzero;stroke:none"
             d="m 0,0 c -14.5,0 -26.688,11.809 -26.688,26.309 0,14.49 12.188,26.299 26.688,26.299 8.022,0 13.732,-3.139 18.028,-7.245 L 12.955,40.291 C 9.876,43.181 5.71,45.423 0,45.423 c -10.583,0 -18.865,-8.531 -18.865,-19.114 0,-10.583 8.272,-19.114 18.865,-19.114 6.866,0 10.783,2.761 13.284,5.262 2.053,2.053 3.398,5.003 3.916,9.049 H 0 v 7.185 H 24.186 C 24.445,27.405 24.575,25.87 24.575,24.196 24.575,18.805 23.1,12.138 18.356,7.384 13.732,2.561 7.833,0 0,0" /></g><g
           transform="translate(143.055,237.6048)"
           id="g24"><path
             id="path26"
             style="fill:#ea4f43;fill-opacity:1;fill-rule:nonzero;stroke:none"
             d="m 0,0 c 0,6.059 -4.405,10.205 -9.507,10.205 -5.102,0 -9.507,-4.146 -9.507,-10.205 0,-5.999 4.405,-10.205 9.507,-10.205 C -4.405,-10.205 0,-5.999 0,0 m 7.394,0 c 0,-9.696 -7.593,-16.842 -16.901,-16.842 -9.308,0 -16.902,7.146 -16.902,16.842 0,9.756 7.594,16.832 16.902,16.832 C -0.199,16.832 7.394,9.756 7.394,0" /></g><g
           transform="translate(179.9274,237.6048)"
           id="g28"><path
             id="path30"
             style="fill:#f9be30;fill-opacity:1;fill-rule:nonzero;stroke:none"
             d="m 0,0 c 0,6.059 -4.405,10.205 -9.507,10.205 -5.102,0 -9.507,-4.146 -9.507,-10.205 0,-5.999 4.405,-10.205 9.507,-10.205 C -4.405,-10.205 0,-5.999 0,0 m 7.394,0 c 0,-9.696 -7.593,-16.842 -16.901,-16.842 -9.308,0 -16.902,7.146 -16.902,16.842 0,9.756 7.594,16.832 16.902,16.832 C -0.199,16.832 7.394,9.756 7.394,0" /></g><g
           transform="translate(216.3315,237.5451)"
           id="g32"><path
             id="path34"
             style="fill:#5d82c1;fill-opacity:1;fill-rule:nonzero;stroke:none"
             d="m 0,0 c 0,5.929 -3.956,10.264 -8.989,10.264 -5.102,0 -9.377,-4.335 -9.377,-10.264 0,-5.87 4.275,-10.135 9.377,-10.135 C -3.956,-10.145 0,-5.87 0,0 m 6.507,15.875 v -30.166 c 0,-12.437 -7.334,-17.539 -16.004,-17.539 -8.162,0 -13.075,5.481 -14.928,9.946 l 6.437,2.68 c 1.146,-2.74 3.957,-5.999 8.481,-5.999 5.551,0 8.989,3.448 8.989,9.886 v 2.362 h -0.259 c -1.655,-2.043 -4.844,-3.827 -8.87,-3.827 -8.42,0 -16.134,7.335 -16.134,16.772 0,9.507 7.714,16.902 16.134,16.902 4.017,0 7.205,-1.784 8.87,-3.767 h 0.259 v 2.74 h 7.026 z" /></g><path
           id="path36"
           style="fill:#42aa5a;fill-opacity:1;fill-rule:nonzero;stroke:none"
           d="m 235.196,220.773 h -6.976 v 49.489 h 6.976 z" /><g
           transform="translate(246.7761,238.1131)"
           id="g38"><path
             id="path40"
             style="fill:#ea4f43;fill-opacity:1;fill-rule:nonzero;stroke:none"
             d="M 0,0 15.048,6.248 C 14.221,8.351 11.729,9.816 8.8,9.816 5.033,9.826 -0.199,6.507 0,0 m 17.659,-6.059 5.74,-3.827 c -1.854,-2.74 -6.308,-7.464 -14.031,-7.464 -9.567,0 -16.713,7.394 -16.713,16.842 0,10.015 7.205,16.832 15.885,16.832 8.74,0 13.015,-6.956 14.411,-10.713 L 23.668,3.677 1.196,-5.621 c 1.724,-3.378 4.405,-5.102 8.162,-5.102 3.777,0.01 6.388,1.864 8.301,4.664" /></g><g
           id="g42"><g
             id="g44" /><g
             id="g64"><g
               style="opacity:0.53999299"
               id="g62"
               clip-path="url(#clipPath48)"><g
                 id="g60"><g
                   id="g58"
                   clip-path="url(#clipPath52)"><g
                     id="g56"
                     transform="translate(433.0912,228.5761)"><path
                       id="path54"
                       style="fill:#292929;fill-opacity:1;fill-rule:nonzero;stroke:none"
                       d="m 0,0 5.232,2.172 c 1.654,-3.956 4.724,-5.869 8.481,-5.869 3.637,0 6.248,1.784 6.248,4.405 0,1.594 -0.957,3.318 -4.275,4.145 L 9.368,6.388 c -2.871,0.697 -8.352,3.189 -8.352,8.67 0,5.68 5.87,9.308 12.378,9.308 5.421,0 10.135,-2.492 12.048,-7.275 L 20.35,14.978 c -1.216,2.93 -4.086,4.146 -7.146,4.146 -3.318,0 -6.188,-1.465 -6.188,-4.016 0,-1.973 1.654,-3.06 4.145,-3.638 L 17.35,10.005 C 23.539,8.54 25.96,4.714 25.96,0.887 25.96,-4.664 20.987,-8.929 13.653,-8.929 6.119,-8.929 1.854,-4.465 0,0 m -9.178,7.713 c 0,7.146 -4.724,11.291 -9.946,11.291 -5.222,0 -9.945,-4.275 -9.945,-11.291 0,-7.015 4.723,-11.291 9.945,-11.291 5.222,0 9.946,4.146 9.946,11.291 m -25.771,0 c 0,9.567 6.956,16.643 14.859,16.643 4.972,0 8.869,-2.492 10.653,-5.362 h 0.259 l -0.259,4.335 v 14.42 h 5.869 V -7.913 h -5.61 v 4.335 h -0.259 c -1.784,-2.87 -5.681,-5.361 -10.653,-5.361 -7.903,0.01 -14.859,7.085 -14.859,16.652 m -26.737,11.291 h 0.259 c 1.674,2.87 5.66,5.362 9.965,5.362 8.032,-0.01 12.019,-5.432 12.019,-13.145 V -7.913 h -5.92 v 18.237 c 0,6.508 -3.279,8.67 -7.783,8.67 -5.142,0 -8.291,-4.843 -8.291,-9.626 V -7.913 h -5.91 V 22.98 h 5.661 z m -25.821,-0.269 c -4.335,0 -7.783,-2.93 -8.929,-7.524 h 18.107 c -0.179,2.741 -2.481,7.524 -9.178,7.524 M -102.685,7.454 c 0,8.87 6.119,16.643 15.307,16.643 9.308,0 15.307,-6.568 15.307,-16.643 0,-0.448 -0.059,-1.086 -0.059,-1.086 h -24.685 c 0.319,-6.637 5.102,-10.205 9.946,-10.205 3.448,0 6.886,1.405 8.55,5.362 l 5.232,-2.173 c -1.854,-4.464 -6.438,-8.55 -13.653,-8.55 -9.567,0 -15.945,7.215 -15.945,16.652 M -122.157,-7.913 V 22.98 h 5.61 v -4.743 h 0.259 c 1.276,3.568 5.8,5.87 9.059,5.87 1.914,0 3.189,-0.26 4.405,-0.768 l -2.232,-5.481 c -0.827,0.319 -1.854,0.449 -3.13,0.449 -4.016,0 -8.102,-3.379 -8.102,-9.119 V -7.913 Z m -16.942,0 v 40.052 h -12.955 v 5.61 h 30.893 v -5.61 h -12.267 V -7.913 Z" /></g></g></g></g></g></g></g></g></g></svg>